<svg width="389" height="246" viewBox="0 0 389 246" fill="none" xmlns="http://www.w3.org/2000/svg">
<rect width="389" height="246" rx="52" fill="#D9D9D9"/>
<path d="M64 88.4286H70.8571V95.2857H64V88.4286ZM70.8571 88.4286H77.7143V95.2857H70.8571V88.4286ZM77.7143 88.4286H84.5714V95.2857H77.7143V88.4286ZM84.5714 88.4286H91.4286V95.2857H84.5714V88.4286ZM91.4286 88.4286H98.2857V95.2857H91.4286V88.4286ZM98.2857 88.4286H105.143V95.2857H98.2857V88.4286ZM98.2857 95.2857H105.143V102.143H98.2857V95.2857ZM91.4286 95.2857H98.2857V102.143H91.4286V95.2857ZM84.5714 95.2857H91.4286V102.143H84.5714V95.2857ZM77.7143 95.2857H84.5714V102.143H77.7143V95.2857ZM70.8571 95.2857H77.7143V102.143H70.8571V95.2857ZM64 95.2857H70.8571V102.143H64V95.2857ZM77.7143 102.143H84.5714V109H77.7143V102.143ZM77.7143 109H84.5714V115.857H77.7143V109ZM77.7143 115.857H84.5714V122.714H77.7143V115.857ZM77.7143 122.714H84.5714V129.571H77.7143V122.714ZM77.7143 129.571H84.5714V136.429H77.7143V129.571ZM77.7143 136.429H84.5714V143.286H77.7143V136.429ZM84.5714 129.571H91.4286V136.429H84.5714V129.571ZM84.5714 122.714H91.4286V129.571H84.5714V122.714ZM84.5714 115.857H91.4286V122.714H84.5714V115.857ZM84.5714 109H91.4286V115.857H84.5714V109ZM84.5714 102.143H91.4286V109H84.5714V102.143ZM84.5714 136.429H91.4286V143.286H84.5714V136.429ZM84.5714 143.286H91.4286V150.143H84.5714V143.286ZM84.5714 150.143H91.4286V157H84.5714V150.143ZM77.7143 150.143H84.5714V157H77.7143V150.143ZM77.7143 143.286H84.5714V150.143H77.7143V143.286ZM112 88.4286H118.857V95.2857H112V88.4286ZM118.857 88.4286H125.714V95.2857H118.857V88.4286ZM118.857 95.2857H125.714V102.143H118.857V95.2857ZM118.857 102.143H125.714V109H118.857V102.143ZM118.857 109H125.714V115.857H118.857V109ZM112 109H118.857V115.857H112V109ZM112 102.143H118.857V109H112V102.143ZM112 95.2857H118.857V102.143H112V95.2857ZM112 115.857H118.857V122.714H112V115.857ZM112 122.714H118.857V129.571H112V122.714ZM112 129.571H118.857V136.429H112V129.571ZM118.857 122.714H125.714V129.571H118.857V122.714ZM118.857 115.857H125.714V122.714H118.857V115.857ZM118.857 129.571H125.714V136.429H118.857V129.571ZM118.857 136.429H125.714V143.286H118.857V136.429ZM112 143.286H118.857V150.143H112V143.286ZM112 136.429H118.857V143.286H112V136.429ZM112 150.143H118.857V157H112V150.143ZM118.857 150.143H125.714V157H118.857V150.143ZM118.857 143.286H125.714V150.143H118.857V143.286ZM125.714 150.143H132.571V157H125.714V150.143ZM132.571 150.143H139.429V157H132.571V150.143ZM139.429 150.143H146.286V157H139.429V150.143ZM139.429 143.286H146.286V150.143H139.429V143.286ZM132.571 143.286H139.429V150.143H132.571V143.286ZM125.714 143.286H132.571V150.143H125.714V143.286ZM125.714 88.4286H132.571V95.2857H125.714V88.4286ZM132.571 88.4286H139.429V95.2857H132.571V88.4286ZM139.429 88.4286H146.286V95.2857H139.429V88.4286ZM146.286 88.4286H153.143V95.2857H146.286V88.4286ZM139.429 95.2857H146.286V102.143H139.429V95.2857ZM132.571 95.2857H139.429V102.143H132.571V95.2857ZM125.714 95.2857H132.571V102.143H125.714V95.2857ZM125.714 122.714H132.571V129.571H125.714V122.714ZM132.571 115.857H139.429V122.714H132.571V115.857ZM125.714 115.857H132.571V122.714H125.714V115.857ZM132.571 122.714H139.429V129.571H132.571V122.714ZM146.286 95.2857H153.143V102.143H146.286V95.2857ZM146.286 143.286H153.143V150.143H146.286V143.286ZM146.286 150.143H153.143V157H146.286V150.143ZM139.429 115.857H146.286V122.714H139.429V115.857ZM139.429 122.714H146.286V129.571H139.429V122.714ZM180.571 122.714H187.429V129.571H180.571V122.714ZM180.571 115.857H187.429V122.714H180.571V115.857ZM187.429 115.857H194.286V122.714H187.429V115.857ZM187.429 122.714H194.286V129.571H187.429V122.714ZM187.429 129.571H194.286V136.429H187.429V129.571ZM180.571 129.571H187.429V136.429H180.571V129.571ZM180.571 102.143H187.429V109H180.571V102.143ZM180.571 109H187.429V115.857H180.571V109ZM173.714 115.857H180.571V122.714H173.714V115.857ZM173.714 109H180.571V115.857H173.714V109ZM173.714 102.143H180.571V109H173.714V102.143ZM160 88.4286H166.857V95.2857H160V88.4286ZM166.857 88.4286H173.714V95.2857H166.857V88.4286ZM173.714 88.4286H180.571V95.2857H173.714V88.4286ZM173.714 95.2857H180.571V102.143H173.714V95.2857ZM166.857 95.2857H173.714V102.143H166.857V95.2857ZM160 95.2857H166.857V102.143H160V95.2857ZM160 102.143H166.857V109H160V102.143ZM166.857 102.143H173.714V109H166.857V102.143ZM166.857 109H173.714V115.857H166.857V109ZM166.857 115.857H173.714V122.714H166.857V115.857ZM160 115.857H166.857V122.714H160V115.857ZM160 109H166.857V115.857H160V109ZM160 122.714H166.857V129.571H160V122.714ZM166.857 122.714H173.714V129.571H166.857V122.714ZM166.857 129.571H173.714V136.429H166.857V129.571ZM166.857 136.429H173.714V143.286H166.857V136.429ZM166.857 143.286H173.714V150.143H166.857V143.286ZM166.857 150.143H173.714V157H166.857V150.143ZM160 150.143H166.857V157H160V150.143ZM160 143.286H166.857V150.143H160V143.286ZM160 136.429H166.857V143.286H160V136.429ZM160 129.571H166.857V136.429H160V129.571ZM187.429 136.429H194.286V143.286H187.429V136.429ZM187.429 143.286H194.286V150.143H187.429V143.286ZM194.286 136.429H201.143V143.286H194.286V136.429ZM194.286 129.571H201.143V136.429H194.286V129.571ZM194.286 143.286H201.143V150.143H194.286V143.286ZM194.286 150.143H201.143V157H194.286V150.143ZM201.143 150.143H208V157H201.143V150.143ZM208 150.143H214.857V157H208V150.143ZM208 143.286H214.857V150.143H208V143.286ZM208 136.429H214.857V143.286H208V136.429ZM201.143 136.429H208V143.286H201.143V136.429ZM201.143 143.286H208V150.143H201.143V143.286ZM201.143 129.571H208V136.429H201.143V129.571ZM208 122.714H214.857V129.571H208V122.714ZM208 115.857H214.857V122.714H208V115.857ZM208 129.571H214.857V136.429H208V129.571ZM201.143 122.714H208V129.571H201.143V122.714ZM201.143 115.857H208V122.714H201.143V115.857ZM201.143 109H208V115.857H201.143V109ZM208 109H214.857V115.857H208V109ZM208 102.143H214.857V109H208V102.143ZM201.143 88.4286H208V95.2857H201.143V88.4286ZM208 88.4286H214.857V95.2857H208V88.4286ZM208 95.2857H214.857V102.143H208V95.2857ZM201.143 95.2857H208V102.143H201.143V95.2857ZM201.143 102.143H208V109H201.143V102.143ZM221.75 88.4286H228.607V95.2857H221.75V88.4286ZM228.607 88.4286H235.464V95.2857H228.607V88.4286ZM235.464 88.4286H242.321V95.2857H235.464V88.4286ZM242.321 88.4286H249.179V95.2857H242.321V88.4286ZM249.179 88.4286H256.036V95.2857H249.179V88.4286ZM256.036 88.4286H262.893V95.2857H256.036V88.4286ZM256.036 95.2857H262.893V102.143H256.036V95.2857ZM249.179 95.2857H256.036V102.143H249.179V95.2857ZM242.321 95.2857H249.179V102.143H242.321V95.2857ZM235.464 95.2857H242.321V102.143H235.464V95.2857ZM228.607 95.2857H235.464V102.143H228.607V95.2857ZM221.75 95.2857H228.607V102.143H221.75V95.2857ZM235.464 102.143H242.321V109H235.464V102.143ZM235.464 109H242.321V115.857H235.464V109ZM235.464 115.857H242.321V122.714H235.464V115.857ZM235.464 122.714H242.321V129.571H235.464V122.714ZM235.464 129.571H242.321V136.429H235.464V129.571ZM235.464 136.429H242.321V143.286H235.464V136.429ZM242.321 129.571H249.179V136.429H242.321V129.571ZM242.321 122.714H249.179V129.571H242.321V122.714ZM242.321 115.857H249.179V122.714H242.321V115.857ZM242.321 109H249.179V115.857H242.321V109ZM242.321 102.143H249.179V109H242.321V102.143ZM242.321 136.429H249.179V143.286H242.321V136.429ZM242.321 143.286H249.179V150.143H242.321V143.286ZM242.321 150.143H249.179V157H242.321V150.143ZM235.464 150.143H242.321V157H235.464V150.143ZM235.464 143.286H242.321V150.143H235.464V143.286ZM310.893 102.143H317.75V109H310.893V102.143ZM304.036 102.143H310.893V109H304.036V102.143ZM304.036 95.2857H310.893V102.143H304.036V95.2857ZM310.893 95.2857H317.75V102.143H310.893V95.2857ZM304.036 88.4286H310.893V95.2857H304.036V88.4286ZM297.179 88.4286H304.036V95.2857H297.179V88.4286ZM297.179 95.2857H304.036V102.143H297.179V95.2857ZM290.321 95.2857H297.179V102.143H290.321V95.2857ZM283.464 95.2857H290.321V102.143H283.464V95.2857ZM283.464 88.4286H290.321V95.2857H283.464V88.4286ZM276.607 88.4286H283.464V95.2857H276.607V88.4286ZM290.321 88.4286H297.179V95.2857H290.321V88.4286ZM276.607 95.2857H283.464V102.143H276.607V95.2857ZM269.75 95.2857H276.607V102.143H269.75V95.2857ZM269.75 102.143H276.607V109H269.75V102.143ZM276.607 102.143H283.464V109H276.607V102.143ZM276.607 109H283.464V115.857H276.607V109ZM276.607 115.857H283.464V122.714H276.607V115.857ZM269.75 115.857H276.607V122.714H269.75V115.857ZM269.75 109H276.607V115.857H269.75V109ZM276.607 122.714H283.464V129.571H276.607V122.714ZM283.464 122.714H290.321V129.571H283.464V122.714ZM283.464 115.857H290.321V122.714H283.464V115.857ZM290.321 115.857H297.179V122.714H290.321V115.857ZM297.179 115.857H304.036V122.714H297.179V115.857ZM304.036 115.857H310.893V122.714H304.036V115.857ZM304.036 122.714H310.893V129.571H304.036V122.714ZM297.179 122.714H304.036V129.571H297.179V122.714ZM290.321 122.714H297.179V129.571H290.321V122.714ZM310.893 122.714H317.75V129.571H310.893V122.714ZM310.893 129.571H317.75V136.429H310.893V129.571ZM304.036 129.571H310.893V136.429H304.036V129.571ZM297.179 143.286H304.036V150.143H297.179V143.286ZM304.036 143.286H310.893V150.143H304.036V143.286ZM304.036 136.429H310.893V143.286H304.036V136.429ZM310.893 136.429H317.75V143.286H310.893V136.429ZM310.893 143.286H317.75V150.143H310.893V143.286ZM304.036 150.143H310.893V157H304.036V150.143ZM297.179 150.143H304.036V157H297.179V150.143ZM290.321 150.143H297.179V157H290.321V150.143ZM283.464 150.143H290.321V157H283.464V150.143ZM276.607 150.143H283.464V157H276.607V150.143ZM276.607 143.286H283.464V150.143H276.607V143.286ZM283.464 143.286H290.321V150.143H283.464V143.286ZM290.321 143.286H297.179V150.143H290.321V143.286ZM269.75 143.286H276.607V150.143H269.75V143.286ZM269.75 136.429H276.607V143.286H269.75V136.429ZM276.607 136.429H283.464V143.286H276.607V136.429Z" fill="black"/>
<rect x="325" y="123" width="34" height="34" fill="#0A12FF"/>
</svg>
